<svg xmlns="http://www.w3.org/2000/svg" viewBox="0 0 24 24" width="24" height="24" color="#2b7fff" fill="none" stroke="#2b7fff" stroke-width="1.5">
    <path d="M5 15C5 11.134 8.13401 8 12 8C15.866 8 19 11.134 19 15C19 18.866 15.866 22 12 22C8.13401 22 5 18.866 5 15Z"></path>
    <path d="M16.5 9.5V6.5C16.5 4.01472 14.4853 2 12 2C9.51472 2 7.5 4.01472 7.5 6.5V9.5" stroke-linecap="round"></path>
    <path d="M12.125 15H12M12.25 15C12.25 15.1381 12.1381 15.25 12 15.25C11.8619 15.25 11.75 15.1381 11.75 15C11.75 14.8619 11.8619 14.75 12 14.75C12.1381 14.75 12.25 14.8619 12.25 15Z" stroke-linecap="round" stroke-linejoin="round"></path>
</svg>